<svg xmlns="http://www.w3.org/2000/svg" viewBox="0 0 300 180"><g stroke-linecap="round" stroke-linejoin="round"><ellipse cx="151" cy="151" rx="100" ry="8" fill="#24494d" opacity=".14"/><path d="M81 92 28 60l10 34-12 31 58-12m65-53 14-31 37 31m-44 57-18 25 42-17" fill="#729b9b" stroke="#4c7275" stroke-width="2"/><path d="M67 104c6-28 45-52 95-52 45-1 86 12 100 37 16 29-10 41-50 42-51 4-111-3-145-27Z" fill="#a4b8a1" stroke="#4c7275" stroke-width="2"/><path d="M159 54c-13 17-17 49-6 76l40 2c-9-29-5-53 5-74Z" fill="#8ca5a0" stroke="#597976" stroke-width="2"/><path d="M197 58c-12 17-12 49-4 74 28 1 55-1 69-14 12-14 3-33-17-46-14-9-31-13-48-14Z" fill="#b8c4a6" stroke="#597976" stroke-width="2"/><path d="m163 67 21 4m-22 17 19 5m-19 18 18 3M97 90l15-8m-6 20 16-7m-37 8 10-4" fill="none" stroke="#607f79" stroke-width="3" opacity=".65"/><path d="M174 126q-5 19-23 22l-5-25" fill="#7e9d96" stroke="#597976" stroke-width="2"/><ellipse cx="222" cy="82" rx="15" ry="17" fill="#f5e7cb"/><ellipse cx="226" cy="83" rx="8" ry="11" fill="#293e43"/><circle cx="228" cy="78" r="3" fill="#fff6dc"/><path d="M238 113q13 3 20-5" fill="none" stroke="#4e6c66" stroke-width="2.5"/><ellipse cx="223" cy="109" rx="7" ry="4" fill="#cc8b99" opacity=".65"/><path d="M85 89q29-23 53-22" fill="none" stroke="#d8ddbb" stroke-width="4" opacity=".65"/></g></svg>
